# xmcd CD database file
#
# Track frame offsets:
#	150
#	6054
#	27701
#	45529
#	64939
#	84462
#	100379
#	119002
#	137455
#	154562
#	169581
#	188881
#	214208
#
# Disc length: 3142 seconds
#
# Revision: 0
# Processed by: cddbd v1.5.1PL2 Copyright (c) Steve Scherf et al.
# Submitted via: CDex 1.51
#
DISCID=af0c440d
DTITLE=Llynya - Tales of Time
DYEAR=2005
DGENRE=New Age
TTITLE0=When Moonlight Meets
TTITLE1=Watch The Moon
TTITLE2=Turn Away
TTITLE3=Thunder
TTITLE4=Night Falls
TTITLE5=Wher Trees Stand
TTITLE6=Another Day
TTITLE7=Far Away
TTITLE8=Face Of Beauty
TTITLE9=Darkness
TTITLE10=Call The Bells
TTITLE11=When Moonlight Meets
TTITLE12=Data
EXTD=YEAR: 2005
EXTT0=
EXTT1=
EXTT2=
EXTT3=
EXTT4=
EXTT5=
EXTT6=
EXTT7=
EXTT8=
EXTT9=
EXTT10=
EXTT11=
EXTT12=
PLAYORDER=
